<?xml version="1.0" encoding="UTF-8" standalone="no"?>
<!-- Created with Inkscape (http://www.inkscape.org/) -->

<svg
   xmlns:dc="http://purl.org/dc/elements/1.1/"
   xmlns:cc="http://creativecommons.org/ns#"
   xmlns:rdf="http://www.w3.org/1999/02/22-rdf-syntax-ns#"
   xmlns:svg="http://www.w3.org/2000/svg"
   xmlns="http://www.w3.org/2000/svg"
   xmlns:sodipodi="http://sodipodi.sourceforge.net/DTD/sodipodi-0.dtd"
   xmlns:inkscape="http://www.inkscape.org/namespaces/inkscape"
   id="svg2985"
   version="1.1"
   inkscape:version="0.48.4 r9939"
   width="1488"
   height="661"
   sodipodi:docname="libcraw2.svg">
  <metadata
     id="metadata2991">
    <rdf:RDF>
      <cc:Work
         rdf:about="">
        <dc:format>image/svg+xml</dc:format>
        <dc:type
           rdf:resource="http://purl.org/dc/dcmitype/StillImage" />
        <dc:title></dc:title>
      </cc:Work>
    </rdf:RDF>
  </metadata>
  <defs
     id="defs2989" />
  <sodipodi:namedview
     pagecolor="#ffffff"
     bordercolor="#666666"
     borderopacity="1"
     objecttolerance="10"
     gridtolerance="10"
     guidetolerance="10"
     inkscape:pageopacity="0"
     inkscape:pageshadow="2"
     inkscape:window-width="1920"
     inkscape:window-height="1148"
     id="namedview2987"
     showgrid="false"
     inkscape:zoom="1.0454536"
     inkscape:cx="732.79939"
     inkscape:cy="286.09858"
     inkscape:window-x="-8"
     inkscape:window-y="-8"
     inkscape:window-maximized="1"
     inkscape:current-layer="layer2" />
  <g
     inkscape:groupmode="layer"
     id="layer2"
     inkscape:label="black background"
     style="display:inline">
    <rect
       style="fill:#000000;fill-opacity:1;stroke:#4d4d4d;stroke-width:2;stroke-miterlimit:4;stroke-dasharray:none"
       id="rect5739"
       width="1343.9193"
       height="352.02109"
       x="67.247238"
       y="165.53105"
       rx="7.8721814"
       ry="12.56126"
       transform="matrix(1,0,0.01085351,0.9999411,0,0)"
       inkscape:export-filename="G:\canon_hack\libcraw2\craw2_logo.png"
       inkscape:export-xdpi="90"
       inkscape:export-ydpi="90" />
  </g>
  <g
     inkscape:groupmode="layer"
     id="layer3"
     inkscape:label="logo"
     style="display:inline">
    <path
       style="fill:none;stroke:#000000;stroke-width:1px;stroke-linecap:butt;stroke-linejoin:miter;stroke-opacity:1"
       d="m 133.79618,254.47583 4.05817,192.08728 158.94546,-1.35273 -31.11273,-37.2 -94.6909,1.35272 -5.41091,-179.91272 -29.76,-1.35273 -49.37455,26.37818 z"
       id="path2995"
       inkscape:connector-curvature="0"
       sodipodi:nodetypes="ccccccccc" />
    <path
       style="fill:none;stroke:#000000;stroke-width:1px;stroke-linecap:butt;stroke-linejoin:miter;stroke-opacity:1"
       d="m 296.79981,336.9922 40.58182,-22.99637 19.61455,1.35273 3.38181,131.89091 -35.17091,0 -1.35272,-110.92364 z"
       id="path2997"
       inkscape:connector-curvature="0"
       sodipodi:nodetypes="ccccccc" />
    <path
       style="fill:none;stroke:#000000;stroke-width:1px;stroke-linecap:butt;stroke-linejoin:miter;stroke-opacity:1"
       d="m 350.23254,242.97765 c 36.52364,1.35273 36.52364,1.35273 36.52364,1.35273 l 1.35273,167.73818 c 0,0 5.3799,22.25681 22.65818,31.11273 18.73667,9.60342 34.15636,6.76363 34.15636,6.76363 0,0 20.39045,0.25458 40.92,-16.90909 17.11621,-11.34371 21.98182,-37.2 21.98182,-37.2 0,0 3.62201,-21.7238 -3.72,-39.90546 -7.23683,-17.92119 -23.33455,-29.75999 -23.33455,-29.75999 0,0 -11.7398,-9.69092 -30.77454,-10.48363 -17.69862,-0.73707 -30.77455,9.80726 -30.77455,9.80726 l -3.38182,-91.98545 c 0,0 -4.35273,-8.62866 -12.85091,-10.14546 -7.69443,-1.37334 -19.61454,4.05819 -19.61454,4.05819 z"
       id="path5656"
       inkscape:connector-curvature="0"
       sodipodi:nodetypes="cccscccscsccscc" />
    <g
       transform="translate(-19.738369,9.4394669)"
       id="g5725">
      <path
         sodipodi:nodetypes="cccsssssssssssssccsscscsssc"
         inkscape:connector-curvature="0"
         id="path5658"
         d="m 622.25455,247.33307 -18.93819,64.98163 49.37455,-51.1331 c 0,0 -2.67469,-11.9061 -6.42546,-16.51173 -3.58512,-4.40222 -5.4605,-7.34017 -9.34872,-10.6381 -3.88822,-3.29792 -7.08384,-4.82528 -16.01491,-6.40625 -9.33239,-1.65201 -13.69239,-2.79572 -18.40066,-1.95589 -4.70826,0.83983 -11.79389,1.00003 -17.10843,3.02116 -9.60545,3.65294 -16.34546,7.63444 -23.33455,17.577 -6.98909,9.94254 -8.02457,11.41797 -14.20364,26.63181 -2.34182,5.76595 -5.17786,21.25453 -5.74583,27.82612 -0.56796,6.5716 -1.81338,17.09496 -2.03234,28.63334 -0.47855,25.21837 0.41446,34.71531 3.38182,47.40464 2.28306,9.76308 6.71129,21.4154 9.91873,27.26425 3.20744,5.84882 7.22318,10.68789 12.73944,16.41194 12.96859,13.45706 29.91116,19.60881 45.31637,16.51171 16.20734,-3.25836 43.28727,-36.21927 43.28727,-36.21927 l -6.76364,-12.78326 c 0,0 -16.73399,15.07558 -26.37818,19.70753 -3.37029,1.61871 -7.55272,3.90602 -11.16,3.72847 -3.60727,-0.17755 -11.16,-3.19582 -11.16,-3.19582 0,0 -6.66982,-4.24547 -13.18908,-12.78326 -5.30539,-6.94808 -8.45455,-20.2402 -8.45455,-20.2402 0,0 -3.4382,-10.35427 -5.07273,-28.76236 -1.63568,-18.42096 -2.62077,-29.7628 1.01454,-49.00256 3.56916,-18.88961 5.9632,-26.93349 20.29091,-39.94771 13.67843,-12.42446 28.40728,-10.12009 28.40728,-10.12009 z"
         style="fill:none;stroke:#000000;stroke-width:1.2549901px;stroke-linecap:butt;stroke-linejoin:miter;stroke-opacity:1" />
    </g>
    <path
       style="fill:none;stroke:#000000;stroke-width:1px;stroke-linecap:butt;stroke-linejoin:miter;stroke-opacity:1"
       d="m 423.27981,341.72674 32.12728,80.14909 c 0,0 8.24547,6.35237 16.90909,1.52182 8.53927,-4.76122 8.79272,-12.00545 8.79272,-12.00545 l -32.80363,-81.84 c 0,0 -4.12085,-6.4969 -16.23273,-1.69091 -11.89824,4.72122 -8.79273,13.86545 -8.79273,13.86545 z"
       id="path5662"
       inkscape:connector-curvature="0"
       sodipodi:nodetypes="ccsccsc" />
    <path
       style="fill:none;stroke:#000000;stroke-width:1px;stroke-linecap:butt;stroke-linejoin:miter;stroke-opacity:1"
       d="m 327.91254,289.98492 3.72,5.07273 16.90909,0.33818 -0.33818,-22.65818 -20.96727,-0.33818 z"
       id="path5664"
       inkscape:connector-curvature="0"
       sodipodi:nodetypes="cccccc" />
    <path
       style="fill:none;stroke:#000000;stroke-width:1.26491106px;stroke-linecap:butt;stroke-linejoin:miter;stroke-opacity:1"
       d="m 656.28709,288.62276 c 0,0 11.72386,-16.6635 18.4309,-23.53746 12.23091,-12.53528 22.4891,-15.96217 22.4891,-15.96217 0,0 4.96,-1.984 7.60909,-1.89383 2.64909,0.0902 5.64906,0.88828 8.28545,2.43492 11.9172,6.99124 21.64364,29.21891 21.64364,29.21891 0,0 7.89091,-9.37891 12.85091,-13.25674 4.96,-3.87781 11.38752,-10.03926 17.24727,-12.17454 7.06526,-2.57455 13.58721,-4.7633 20.62909,-3.24655 4.73524,1.01994 10.48364,3.42692 14.03455,7.30474 3.55091,3.87781 6.6991,15.22667 7.27091,21.91418 1.41119,16.50432 -0.33819,41.664 -0.33819,41.664 l -36.86182,0 c 0,0 0.74804,-14.22165 -0.67636,-21.64364 -0.95058,-4.95308 -2.81818,-11.54328 -5.07273,-14.88001 -2.25454,-3.33672 -5.98844,-5.8556 -9.1309,-6.22255 -4.67525,-0.5459 -8.90546,3.24655 -12.68182,6.49309 -3.77636,3.24655 -9.3,12.44509 -9.3,12.44509 l 0,147.71782 -41.93455,0 -0.33818,-155.29308 c 0,0 -3.20353,-7.01752 -10.48363,-8.11637 -3.81579,-0.57595 -12.17455,1.62328 -12.17455,1.62328 z"
       id="path5666"
       inkscape:connector-curvature="0"
       sodipodi:nodetypes="cscsscsssssccssssccccscc" />
    <path
       style="fill:none;stroke:#000000;stroke-width:1px;stroke-linecap:butt;stroke-linejoin:miter;stroke-opacity:1"
       d="m 923.7889,347.13765 34.4946,101.79273 -43.62551,-0.33818 -8.11636,-20.62909 -12.85091,12.51272 -29.08363,7.77819 -17.92364,0 -20.29091,-8.45455 -11.83636,-14.54182 -1.69091,-22.32 14.20363,-20.29091 27.39273,-8.79272 20.62909,4.73454 9.13091,7.77818 13.18909,8.45455 -14.20363,-43.62546 -43.96364,1.01455 21.30545,-11.16 21.30546,-6.76364 24.68727,-1.35272 6.76364,1.35272 5.74913,5.74909 z"
       id="path5717"
       inkscape:connector-curvature="0" />
    <path
       style="fill:none;stroke:#000000;stroke-width:1px;stroke-linecap:butt;stroke-linejoin:miter;stroke-opacity:1"
       d="m 886.25072,398.87947 7.44,12.51273 0.33818,12.17454 -1.35272,7.44 -6.42546,3.38182 -6.76363,2.70546 -10.48364,1.01454 -11.83636,-3.72 -5.07273,-5.41091 -1.01455,-13.86545 3.04364,-11.49818 9.80727,-6.76364 11.16,-1.01455 z"
       id="path5719"
       inkscape:connector-curvature="0" />
    <path
       style="fill:none;stroke:#000000;stroke-width:1px;stroke-linecap:butt;stroke-linejoin:miter;stroke-opacity:1"
       d="m 963.018,348.82856 17.5854,99.76364 44.9782,0 31.7891,-72.03273 19.6145,72.37091 43.2873,0.33818 42.2727,-109.23273 0.3382,-7.10181 -8.7927,-5.7491 -8.4546,-1.35272 -14.88,2.70545 -9.469,4.73455 -2.7055,6.42545 26.3782,-0.67636 -26.7164,83.53091 -2.3673,1.01454 -2.3672,-1.69091 -19.2764,-74.06181 -6.0873,-6.76364 -25.7018,-0.67636 -39.9054,84.54545 -17.5855,-78.79636 -7.44,-9.46909 -10.4836,-3.72 -12.1745,-0.67637 -10.8219,3.38182 -17.5854,7.10182 -3.3818,4.39636 z"
       id="path5721"
       inkscape:connector-curvature="0" />
    <path
       style="fill:none;stroke:#000000;stroke-width:1px;stroke-linecap:butt;stroke-linejoin:miter;stroke-opacity:1"
       d="m 1206.8471,269.69402 c 1.6909,-0.67637 19.6145,-11.16 19.6145,-11.16 l 28.7455,-3.04364 28.069,4.73454 19.9528,10.82182 5.7491,11.49818 -1.6909,17.92364 -7.7782,14.20364 -19.6146,22.99636 -34.1563,33.81818 -28.7455,24.68728 -31.4509,20.96727 -4.7345,31.11273 162.6654,1.6909 8.4546,-8.79272 1.3527,-13.86546 -119.3782,-0.33818 23.3345,-20.96727 44.9782,-30.77455 31.7891,-28.74545 22.6582,-36.86182 5.4109,-19.95273 -3.3818,-18.6 -12.1746,-18.6 -24.349,-15.89454 -24.6873,-6.08728 -26.3782,-1.35272 -22.9964,2.36727 -20.2909,5.41091 -17.9236,9.46909 -16.2327,10.82182 z"
       id="path5723"
       inkscape:connector-curvature="0" />
    <path
       style="fill:#ff0000;fill-opacity:1;stroke:#333333;stroke-width:2.01395988;stroke-miterlimit:4;stroke-dasharray:none"
       d="m 585.41853,445.65794 c -18.56506,-4.59116 -35.43503,-17.78312 -44.46443,-36.2571 -7.12458,-14.57677 -10.32888,-28.28312 -11.47742,-49.09452 -1.1001,-19.9336 2.35683,-56.84292 6.56537,-70.09798 3.98411,-12.5482 9.39352,-26.24231 19.73819,-34.53792 13.34062,-10.69813 31.98621,-16.82516 49.00641,-15.17138 8.7406,0.84929 16.80032,6.47277 23.19623,12.49039 4.62738,4.35369 7.29718,10.47074 10.0418,16.20086 0.74001,1.54497 1.70662,4.84751 1.70662,4.84751 l -22.13527,22.52646 c -12.1744,12.38956 -22.26753,22.15928 -22.42919,21.71048 -0.2428,-0.67405 13.04672,-46.4885 16.10609,-55.5243 l 0.91076,-2.68996 -7.42399,0.41999 c -10.29209,0.58224 -16.28722,3.44928 -25.81607,12.34594 -11.50321,10.74002 -15.18816,18.90678 -19.00088,42.11071 -1.20122,7.31055 -1.42129,13.20835 -0.99539,26.67641 0.81314,25.71393 4.80507,46.7186 11.26466,59.27222 3.3722,6.55356 12.06187,15.71486 17.52829,18.47965 2.066,1.04494 6.22783,2.1189 9.24851,2.38657 4.71768,0.41804 6.34581,0.0935 11.54607,-2.30174 5.31929,-2.45005 14.75501,-8.85452 24.42799,-16.58041 l 3.07162,-2.45333 2.47352,4.77019 c 1.3741,2.64994 2.22794,5.52638 1.92101,6.47144 -0.94877,2.9213 -18.89724,22.74659 -31.71125,29.29628 -7.05493,3.60602 -15.60786,6.60563 -23.29925,4.70354 z"
       id="path5730"
       inkscape:connector-curvature="0"
       sodipodi:nodetypes="asssaaaacssscssssssssscssaa" />
    <path
       style="fill:#ff0000;fill-opacity:1;stroke:#333333;stroke-width:2.04321551;stroke-miterlimit:4;stroke-dasharray:none"
       d="m 691.89302,385.74427 c -0.34863,-31.71815 -0.63427,-68.28964 -0.63477,-81.26999 l -9e-4,-23.60063 -3.82771,-3.61132 c -3.5052,-3.30705 -4.31287,-3.61132 -9.58626,-3.61132 -3.3073,0 -8.0748,0.85017 -11.19991,1.99722 -2.99272,1.09846 -5.58897,1.9972 -5.76942,1.9972 -0.18045,0 1.7197,-2.80857 4.22255,-6.24127 15.71548,-21.55404 33.79278,-34.1737 43.9421,-30.67571 6.85295,2.36188 15.54684,12.76953 22.23012,26.61219 l 2.97995,6.17216 8.86483,-9.20957 c 15.3971,-15.99589 27.19552,-22.38979 39.42351,-21.36476 10.98044,0.92046 17.15324,6.23513 20.84804,17.94977 1.65964,5.26204 2.04577,9.53449 2.39828,26.53575 0.23107,11.14513 0.141,21.81771 -0.20015,23.71683 l -0.62031,3.45295 -17.16894,0 -17.16895,0 0,-9.327 c 0,-10.25968 -2.51669,-22.67849 -5.6785,-28.02108 -2.75091,-4.64825 -8.7043,-7.85924 -13.00826,-7.01604 -4.71823,0.92437 -11.83011,8.82292 -16.64971,14.33784 -1.55685,1.78146 -3.86928,5.95021 -3.86928,5.95021 l 0,76.44795 0,76.44796 -19.44622,0 -19.44623,0 -0.63386,-57.66934 z"
       id="path5732"
       inkscape:connector-curvature="0"
       sodipodi:nodetypes="cscssssssscssssccccsssaccccccc" />
    <path
       style="fill:#ff0000;fill-opacity:1;stroke:#333333;stroke-width:2;stroke-miterlimit:4;stroke-dasharray:none"
       d="m 1226.5415,444.15899 c -29.7057,-0.39865 -54.1159,-0.84506 -54.2452,-0.99204 -0.2357,-0.26827 2.4397,-21.16233 3.1805,-24.83807 0.2734,-1.35643 4.3566,-4.97203 13.2299,-11.71499 7.1076,-5.40111 17.7978,-14.6174 23.9576,-20.6544 23.9323,-23.45588 51.0754,-56.21459 57.3967,-69.27192 2.6612,-5.49675 3.2007,-7.54895 3.9165,-14.89677 0,0 -0.065,-5.36659 -0.5227,-8.18366 -0.3444,-2.11822 -1.2691,-6.21826 -1.2691,-6.21826 0,0 -2.8823,-6.28828 -4.9892,-8.58554 -1.9688,-2.14671 -7.2697,-6.09235 -9.6664,-7.31174 -8.2572,-4.20121 -13.6414,-5.11063 -20.8064,-5.56762 -6.4455,-0.4111 -12.9755,0.87383 -19.2019,2.59006 -7.596,2.09374 -16.4404,5.74622 -21.7364,9.28855 l -3.4547,2.31074 -4.9124,-5.0151 -4.9124,-5.01511 7.2164,-5.30718 c 10.6603,-7.83976 19.27,-12.45056 28.3115,-15.16163 17.4257,-5.22502 37.1615,-5.42745 55.2145,-0.56632 10.0201,2.69812 15.3709,6.38215 19.9444,9.78006 9.3202,6.92458 10.5796,7.88023 14.359,13.15891 3.4152,4.76984 7.1159,9.38221 7.076,16.11405 0,0 0.7554,5.06976 0.9695,11.30379 0.1961,5.70916 -0.7737,5.6645 -3.39,14.53724 -1.8323,6.21394 -3.0501,7.443 -9.6494,19.72814 0,0 -6.2582,11.24907 -9.9795,16.35089 -3.6092,4.94796 -11.7422,13.56098 -11.7422,13.56098 -10.197,10.56946 -16.4074,16.06394 -30.9499,27.38129 -11.9679,9.31386 -21.4485,17.48076 -27.7073,23.86788 -5.2328,5.34019 -9.5141,10.02973 -9.5141,10.42122 0,0.39152 21.5915,0.71185 47.9811,0.71185 l 47.9814,0 -0.5379,5.45526 c -0.4641,4.70613 -0.9697,6.01921 -3.6818,9.56196 l -3.1439,4.10671 -10.3557,-0.10222 c -5.6957,-0.0562 -34.6604,-0.42839 -64.366,-0.82701 z"
       id="path5734"
       inkscape:connector-curvature="0"
       sodipodi:nodetypes="cccscccscssaascccssssassssssssssccscscc" />
    <path
       style="fill:#ffffff;fill-opacity:1;stroke:#4d4d4d;stroke-width:2;stroke-miterlimit:4;stroke-dasharray:none"
       d="m 334.51009,293.75663 c -1.18237,-1.80343 -1.79811,-4.98978 -2.03325,-10.52175 l -0.33729,-7.93493 9.66338,0 9.66338,0 0,10.52175 0,10.52174 -7.63013,0 c -7.23682,0 -7.71755,-0.13334 -9.32609,-2.58681 l 0,0 z"
       id="path5821"
       inkscape:connector-curvature="0" />
    <path
       style="fill:#ffffff;fill-opacity:1;stroke:#4d4d4d;stroke-width:1.58575594;stroke-miterlimit:4;stroke-dasharray:none"
       d="m 183.26372,432.26919 c -0.0491,-25.92166 -2.63455,-167.35823 -3.0695,-167.922 -0.25063,-0.32486 -6.89587,-0.80819 -14.76721,-1.07405 l -14.31152,-0.48341 15.2639,-10.56032 15.26391,-10.5603 9.5784,0.77218 c 5.26813,0.42471 9.70677,0.93858 9.86366,1.14192 0.51533,0.66795 1.03913,17.51031 2.4081,77.42982 0.74295,32.5193 1.55467,66.33248 1.80381,75.14041 l 0.45298,16.0144 34.8753,0.23396 34.87532,0.23395 8.27009,12.63762 c 4.54856,6.95069 9.21157,14.16092 10.36228,16.0227 l 2.09222,3.38509 -56.4691,0 -56.46908,0 -0.0235,-12.41197 z"
       id="path5823"
       inkscape:connector-curvature="0" />
    <path
       style="fill:#ffffff;fill-opacity:1;stroke:#4d4d4d;stroke-width:1.91304529;stroke-miterlimit:4;stroke-dasharray:none"
       d="m 325.35512,445.49576 c -0.0611,-0.13152 -0.60047,-24.84696 -1.19851,-54.92319 -0.59803,-30.07624 -1.38463,-54.98137 -1.74801,-55.34475 -0.36337,-0.36337 -4.87513,-0.936 -10.02612,-1.27251 l -9.36544,-0.61183 16.39289,-9.25321 16.39289,-9.25321 8.46219,0.64451 8.46218,0.64451 0.6173,7.65218 c 0.33952,4.2087 1.09181,27.02176 1.67175,50.6957 0.57995,23.67393 1.30261,49.39243 1.60591,57.15222 l 0.55146,14.10871 -15.85366,0 c -8.71951,0 -15.90368,-0.10761 -15.96483,-0.23913 l 0,0 z"
       id="path5825"
       inkscape:connector-curvature="0" />
    <path
       style="fill:#ffffff;fill-opacity:1;stroke:#4d4d4d;stroke-width:1.84275568;stroke-miterlimit:4;stroke-dasharray:none"
       d="m 429.24625,447.09782 c -5.49643,-1.04446 -11.77333,-3.24251 -16.33285,-5.71944 -6.02375,-3.27238 -10.8781,-8.12155 -14.97218,-13.43089 -2.81568,-3.65147 -6.31576,-12.30703 -6.31576,-12.30703 l -0.57177,-47.01628 c -0.31448,-25.85895 -0.84226,-61.26731 -1.17285,-78.68524 l -0.60105,-31.66896 -2.50581,-0.43799 c -1.3782,-0.2409 -8.07939,-0.7049 -14.89152,-1.03112 -14.38192,-0.68873 -14.75701,-0.0906 5.20836,-8.30493 22.09241,-9.08942 27.59463,-9.60438 35.00213,-3.27592 l 4.26734,3.64572 0.9491,23.50814 c 1.29123,31.98239 2.85385,62.40035 3.22317,62.7427 0.16731,0.1551 3.9959,-1.36005 8.50797,-3.367 11.2519,-5.00478 19.65586,-6.09337 31.0375,-4.02038 14.45465,2.6327 25.26081,9.16894 34.98694,21.16227 10.61765,13.09268 13.1889,20.40839 13.32715,37.91826 0.0881,11.16076 -0.10319,12.50481 -2.81084,19.74791 -3.51759,9.40974 -7.89786,16.33349 -13.65279,21.58051 -9.14068,8.33399 -24.68266,16.36634 -35.88678,18.5469 -7.17372,1.39616 -20.53703,1.60201 -26.79546,0.41277 z m 42.31692,-20.40765 c 12.75328,-6.59818 14.53914,-9.3285 11.73423,-16.57326 -4.30134,-13.26409 -13.59255,-33.19154 -13.59255,-33.19154 -20.67138,-45.19348 -15.6017,-35.13834 -17.01067,-37.36139 -3.89323,-6.14271 -13.48748,-6.06847 -21.05685,0.6063 -4.50589,3.97334 -6.7255,7.63415 -2.55045,16.78832 4.20283,9.21507 24.45853,56.66509 28.07159,63.6863 3.89755,7.57402 8.37147,8.63319 14.4047,6.04527 z"
       id="path5827"
       inkscape:connector-curvature="0"
       sodipodi:nodetypes="ssacsscsssscscssssssssccsssssc" />
    <path
       style="fill:#ffffff;fill-opacity:1;stroke:#333333;stroke-width:1.91304529;stroke-miterlimit:4;stroke-dasharray:none"
       d="m 828.11895,442.35176 c -10.57341,-1.32946 -19.85453,-5.91957 -26.86365,-12.97347 -4.29874,-4.3262 -7.07569,-10.47676 -7.85163,-16.52598 -1.06143,-8.27486 1.04043,-17.08172 4.68712,-24.58515 1.63126,-3.35648 4.42508,-6.1281 7.35178,-8.44357 4.12726,-3.26531 9.31287,-5.98666 13.97306,-7.34999 4.66019,-1.36333 8.86119,-1.46942 13.2967,-1.13259 3.02931,0.23005 5.96907,1.20291 8.86026,2.136 4.2238,1.36316 8.38412,2.99587 12.32623,5.03509 4.25718,2.20221 7.92706,5.41736 12.12927,7.72274 3.35239,1.83916 10.39526,6.48855 10.39526,4.85054 0,-0.81398 -9.78972,-32.42297 -12.24126,-39.52449 l -1.81612,-5.26087 -18.67155,0 c -20.92979,0 -20.75616,0.15151 -6.9421,-6.05781 11.75052,-5.28178 20.8787,-7.65348 34.41015,-8.94051 21.71719,-2.06561 23.74163,-0.42037 34.09083,27.70457 4.1968,11.40517 28.5614,83.10917 28.5614,84.05497 0,0.20013 -9.0737,0.24771 -20.1638,0.10572 l -20.16376,-0.25816 -3.27823,-8.6087 c -5.73596,-15.06278 -4.18103,-14.32481 -12.64375,-6.00073 0,0 -4.35351,4.54919 -7.35921,6.2241 -4.1573,2.31665 -14.20776,5.75613 -14.20776,5.75613 -14.97067,3.65787 -20.42993,3.00881 -27.87924,2.07216 z m 34.30815,-11.25619 c 2.93079,-1.37519 5.9075,-3.28009 7.61115,-6.03296 2.16618,-3.50027 2.64482,-7.96818 2.5476,-12.08337 -0.0989,-4.18677 -0.55863,-8.88302 -3.16958,-12.15743 -4.29607,-5.38774 -12.58247,-8.53569 -18.34077,-9.5379 -5.7583,-1.00221 -10.26604,-0.71526 -14.26579,1.93637 -6.60546,4.37908 -12.03517,12.53033 -12.11885,20.45507 -0.0651,6.16435 4.1847,12.37118 9.08869,16.10672 4.3576,3.31934 10.46636,3.88098 15.94322,3.98418 4.32657,0.0815 8.78681,-0.8325 12.70433,-2.67068 z"
       id="path5829"
       inkscape:connector-curvature="0"
       sodipodi:nodetypes="saaaazsaaasscsssssscsssssaaaazaaaaa" />
    <path
       style="fill:#ffffff;fill-opacity:1;stroke:#333333;stroke-width:1.91304529;stroke-miterlimit:4;stroke-dasharray:none"
       d="m 988.4017,442.72987 c -5.9185,-0.19909 -10.7609,-0.63756 -10.7609,-0.97439 0,-0.60777 -15.8544,-90.24203 -16.8286,-95.14235 -0.546,-2.74629 -0.8006,-2.82654 -13.2766,-4.18597 -5.1957,-0.56614 -5.5479,-0.74401 -3.8831,-1.96134 1.007,-0.73631 6.3761,-3.14204 11.9313,-5.34607 9.5354,-3.78313 10.6624,-4.0106 20.144,-4.06571 8.9991,-0.0523 10.487,0.19028 14.3086,2.33292 7.6977,4.31577 8.6901,6.9428 18.2692,48.36166 9.856,42.6159 9.3794,40.79762 10.588,40.39477 0.504,-0.16803 9.7511,-19.02326 20.549,-41.90052 10.7978,-22.87727 19.9261,-41.87752 20.2849,-42.22278 0.3589,-0.34526 5.5347,-0.29197 11.5019,0.11841 12.7254,0.87518 14.7276,1.91584 17.5665,9.13019 1.0324,2.62376 5.0869,16.82265 9.0099,31.5531 10.5526,39.62373 11.6518,42.61788 15.152,41.27471 0.8537,-0.32759 2.1923,-2.12778 2.9748,-4.00044 2.0049,-4.7986 26.2301,-79.26495 26.2301,-80.62953 0,-0.73775 -2.2151,-1.1614 -6.4565,-1.23485 -10.933,-0.18932 -18.4342,-1.20409 -17.6678,-2.39014 2.057,-3.18359 16.7772,-8.03654 24.2624,-7.9988 4.9479,0.0249 11.462,2.76821 13.5073,5.68832 1.1559,1.65034 1.2613,2.82966 0.5005,5.60352 -1.0936,3.98704 -19.4185,52.80479 -32.1974,85.7742 l -8.5271,22.00002 -20.597,0.2576 c -19.0032,0.23765 -20.6357,0.12664 -21.0991,-1.43479 -0.2762,-0.93081 -4.2078,-15.03586 -8.7369,-31.34458 -12.0531,-43.40194 -10.9939,-40.11026 -12.4233,-38.60625 -1.0308,1.08462 -18.7981,40.65286 -28.8198,64.18263 l -2.7454,6.44592 -4.7826,0.0174 c -2.6305,0.01 -7.5805,0.16314 -11,0.34125 -3.4196,0.17813 -11.0598,0.16097 -16.9783,-0.0382 l 0,4e-5 z"
       id="path5831"
       inkscape:connector-curvature="0" />
  </g>
</svg>
