<?xml version="1.0" encoding="UTF-8" standalone="no"?>
<!DOCTYPE svg PUBLIC "-//W3C//DTD SVG 1.1//EN"
 "http://www.w3.org/Graphics/SVG/1.1/DTD/svg11.dtd">
<!-- Generated by graphviz version 2.38.0 (20140413.2041)
 -->
<!-- Title: huffman0 Pages: 1 -->
<svg width="415pt" height="414pt"
 viewBox="0.00 0.00 415.04 414.20" xmlns="http://www.w3.org/2000/svg" xmlns:xlink="http://www.w3.org/1999/xlink">
<g id="graph0" class="graph" transform="scale(1 1) rotate(0) translate(4 410.2)">
<title>huffman0</title>
<polygon fill="white" stroke="none" points="-4,4 -4,-410.2 411.044,-410.2 411.044,4 -4,4"/>
<!-- r -->
<g id="node1" class="node"><title>r</title>
<ellipse fill="black" stroke="black" cx="183.096" cy="-404" rx="1.8" ry="1.8"/>
</g>
<!-- 0 -->
<g id="node2" class="node"><title>0</title>
<ellipse fill="black" stroke="black" cx="129.096" cy="-350" rx="1.8" ry="1.8"/>
</g>
<!-- r&#45;&gt;0 -->
<g id="edge1" class="edge"><title>r&#45;&gt;0</title>
<path fill="none" stroke="black" d="M182.159,-402.097C176.892,-397.025 150.727,-371.83 137.211,-358.814"/>
<polygon fill="black" stroke="black" points="139.527,-356.186 129.896,-351.77 134.672,-361.228 139.527,-356.186"/>
<text text-anchor="middle" x="166.596" y="-373.3" font-family="Times New Roman,serif" font-size="14.00">0</text>
</g>
<!-- 1 -->
<g id="node4" class="node"><title>1</title>
<ellipse fill="black" stroke="black" cx="223.096" cy="-350" rx="1.8" ry="1.8"/>
</g>
<!-- r&#45;&gt;1 -->
<g id="edge3" class="edge"><title>r&#45;&gt;1</title>
<path fill="none" stroke="black" d="M183.791,-402.097C187.578,-397.174 205.947,-373.294 216.178,-359.993"/>
<polygon fill="black" stroke="black" points="219.181,-361.831 222.504,-351.77 213.633,-357.563 219.181,-361.831"/>
<text text-anchor="middle" x="212.596" y="-373.3" font-family="Times New Roman,serif" font-size="14.00">1</text>
</g>
<!-- 00 -->
<g id="node3" class="node"><title>00</title>
<ellipse fill="none" stroke="black" cx="35.0965" cy="-279" rx="27" ry="18"/>
<text text-anchor="middle" x="35.0965" y="-275.3" font-family="Times New Roman,serif" font-size="14.00">0:00</text>
</g>
<!-- 0&#45;&gt;00 -->
<g id="edge2" class="edge"><title>0&#45;&gt;00</title>
<path fill="none" stroke="black" d="M128.041,-348.225C121.517,-343.436 86.145,-317.472 60.9757,-298.996"/>
<polygon fill="black" stroke="black" points="63.0201,-296.155 52.8877,-293.059 58.8779,-301.798 63.0201,-296.155"/>
<text text-anchor="middle" x="107.596" y="-319.3" font-family="Times New Roman,serif" font-size="14.00">0</text>
</g>
<!-- 01 -->
<g id="node5" class="node"><title>01</title>
<ellipse fill="none" stroke="black" cx="129.096" cy="-279" rx="27" ry="18"/>
<text text-anchor="middle" x="129.096" y="-275.3" font-family="Times New Roman,serif" font-size="14.00">1:01</text>
</g>
<!-- 0&#45;&gt;01 -->
<g id="edge4" class="edge"><title>0&#45;&gt;01</title>
<path fill="none" stroke="black" d="M129.096,-348.025C129.096,-343.521 129.096,-324.239 129.096,-307.349"/>
<polygon fill="black" stroke="black" points="132.597,-307.295 129.096,-297.295 125.597,-307.295 132.597,-307.295"/>
<text text-anchor="middle" x="132.596" y="-319.3" font-family="Times New Roman,serif" font-size="14.00">1</text>
</g>
<!-- 10 -->
<g id="node6" class="node"><title>10</title>
<ellipse fill="none" stroke="black" cx="223.096" cy="-279" rx="27" ry="18"/>
<text text-anchor="middle" x="223.096" y="-275.3" font-family="Times New Roman,serif" font-size="14.00">2:10</text>
</g>
<!-- 1&#45;&gt;10 -->
<g id="edge5" class="edge"><title>1&#45;&gt;10</title>
<path fill="none" stroke="black" d="M223.096,-348.025C223.096,-343.521 223.096,-324.239 223.096,-307.349"/>
<polygon fill="black" stroke="black" points="226.597,-307.295 223.096,-297.295 219.597,-307.295 226.597,-307.295"/>
<text text-anchor="middle" x="226.596" y="-319.3" font-family="Times New Roman,serif" font-size="14.00">0</text>
</g>
<!-- 11 -->
<g id="node7" class="node"><title>11</title>
<ellipse fill="black" stroke="black" cx="284.096" cy="-279" rx="1.8" ry="1.8"/>
</g>
<!-- 1&#45;&gt;11 -->
<g id="edge6" class="edge"><title>1&#45;&gt;11</title>
<path fill="none" stroke="black" d="M223.782,-348.225C228.898,-342.438 261.355,-305.724 276.426,-288.677"/>
<polygon fill="black" stroke="black" points="279.162,-290.866 283.163,-281.056 273.917,-286.23 279.162,-290.866"/>
<text text-anchor="middle" x="254.596" y="-319.3" font-family="Times New Roman,serif" font-size="14.00">1</text>
</g>
<!-- 110 -->
<g id="node8" class="node"><title>110</title>
<ellipse fill="none" stroke="black" cx="258.096" cy="-192" rx="30.5947" ry="18"/>
<text text-anchor="middle" x="258.096" y="-188.3" font-family="Times New Roman,serif" font-size="14.00">3:110</text>
</g>
<!-- 11&#45;&gt;110 -->
<g id="edge7" class="edge"><title>11&#45;&gt;110</title>
<path fill="none" stroke="black" d="M283.804,-277.045C282.082,-271.415 273.09,-242.018 266.222,-219.563"/>
<polygon fill="black" stroke="black" points="269.521,-218.383 263.249,-209.844 262.827,-220.43 269.521,-218.383"/>
<text text-anchor="middle" x="276.596" y="-232.3" font-family="Times New Roman,serif" font-size="14.00">0</text>
</g>
<!-- 111 -->
<g id="node9" class="node"><title>111</title>
<ellipse fill="black" stroke="black" cx="324.096" cy="-192" rx="1.8" ry="1.8"/>
</g>
<!-- 11&#45;&gt;111 -->
<g id="edge8" class="edge"><title>11&#45;&gt;111</title>
<path fill="none" stroke="black" d="M284.546,-277.045C287.941,-269.83 309.704,-223.584 319.422,-202.934"/>
<polygon fill="black" stroke="black" points="322.609,-204.38 323.701,-193.841 316.276,-201.399 322.609,-204.38"/>
<text text-anchor="middle" x="309.596" y="-232.3" font-family="Times New Roman,serif" font-size="14.00">1</text>
</g>
<!-- 1110 -->
<g id="node10" class="node"><title>1110</title>
<ellipse fill="none" stroke="black" cx="296.096" cy="-105" rx="34.394" ry="18"/>
<text text-anchor="middle" x="296.096" y="-101.3" font-family="Times New Roman,serif" font-size="14.00">4:1110</text>
</g>
<!-- 111&#45;&gt;1110 -->
<g id="edge9" class="edge"><title>111&#45;&gt;1110</title>
<path fill="none" stroke="black" d="M323.782,-190.045C321.927,-184.415 312.244,-155.018 304.847,-132.563"/>
<polygon fill="black" stroke="black" points="308.098,-131.247 301.645,-122.844 301.45,-133.437 308.098,-131.247"/>
<text text-anchor="middle" x="315.596" y="-145.3" font-family="Times New Roman,serif" font-size="14.00">0</text>
</g>
<!-- 1111 -->
<g id="node11" class="node"><title>1111</title>
<ellipse fill="black" stroke="black" cx="367.096" cy="-105" rx="1.8" ry="1.8"/>
</g>
<!-- 111&#45;&gt;1111 -->
<g id="edge10" class="edge"><title>111&#45;&gt;1111</title>
<path fill="none" stroke="black" d="M324.579,-190.045C328.23,-182.83 351.625,-136.584 362.071,-115.934"/>
<polygon fill="black" stroke="black" points="365.28,-117.344 366.671,-106.841 359.034,-114.185 365.28,-117.344"/>
<text text-anchor="middle" x="351.596" y="-145.3" font-family="Times New Roman,serif" font-size="14.00">1</text>
</g>
<!-- 11110 -->
<g id="node12" class="node"><title>11110</title>
<ellipse fill="none" stroke="black" cx="328.096" cy="-18" rx="38.9931" ry="18"/>
<text text-anchor="middle" x="328.096" y="-14.3" font-family="Times New Roman,serif" font-size="14.00">5:11110</text>
</g>
<!-- 1111&#45;&gt;11110 -->
<g id="edge11" class="edge"><title>1111&#45;&gt;11110</title>
<path fill="none" stroke="black" d="M366.658,-103.045C364.052,-97.364 350.343,-67.4864 340.006,-44.9574"/>
<polygon fill="black" stroke="black" points="343.176,-43.4734 335.825,-35.8441 336.814,-46.3926 343.176,-43.4734"/>
<text text-anchor="middle" x="353.596" y="-58.3" font-family="Times New Roman,serif" font-size="14.00">0</text>
</g>
<!-- 11111 -->
<g id="node13" class="node"><title>11111</title>
<ellipse fill="black" stroke="black" cx="405.096" cy="-18" rx="1.8" ry="1.8"/>
</g>
<!-- 1111&#45;&gt;11111 -->
<g id="edge12" class="edge"><title>1111&#45;&gt;11111</title>
<path fill="none" stroke="black" d="M367.523,-103.045C370.734,-95.8638 391.228,-50.0214 400.523,-29.2292"/>
<polygon fill="black" stroke="black" points="403.834,-30.399 404.72,-19.8413 397.444,-27.542 403.834,-30.399"/>
<text text-anchor="middle" x="391.596" y="-58.3" font-family="Times New Roman,serif" font-size="14.00">1</text>
</g>
</g>
</svg>
