<?xml version="1.0" encoding="UTF-8" standalone="no"?>
<!DOCTYPE svg PUBLIC "-//W3C//DTD SVG 1.1//EN"
 "http://www.w3.org/Graphics/SVG/1.1/DTD/svg11.dtd">
<!-- Generated by graphviz version 2.38.0 (20140413.2041)
 -->
<!-- Title: huffman0 Pages: 1 -->
<svg width="468pt" height="414pt"
 viewBox="0.00 0.00 468.35 414.20" xmlns="http://www.w3.org/2000/svg" xmlns:xlink="http://www.w3.org/1999/xlink">
<g id="graph0" class="graph" transform="scale(1 1) rotate(0) translate(4 410.2)">
<title>huffman0</title>
<polygon fill="white" stroke="none" points="-4,4 -4,-410.2 464.347,-410.2 464.347,4 -4,4"/>
<!-- r -->
<g id="node1" class="node"><title>r</title>
<ellipse fill="black" stroke="black" cx="204.547" cy="-404.4" rx="1.8" ry="1.8"/>
</g>
<!-- 0 -->
<g id="node2" class="node"><title>0</title>
<ellipse fill="black" stroke="black" cx="109.547" cy="-349.8" rx="1.8" ry="1.8"/>
</g>
<!-- r&#45;&gt;0 -->
<g id="edge1" class="edge"><title>r&#45;&gt;0</title>
<path fill="none" stroke="black" d="M203.48,-402.809C195.293,-398.276 142.152,-368.852 119.62,-356.377"/>
<polygon fill="black" stroke="black" points="121.175,-353.238 110.731,-351.456 117.784,-359.361 121.175,-353.238"/>
<text text-anchor="middle" x="172.047" y="-373.4" font-family="Times New Roman,serif" font-size="14.00">0</text>
</g>
<!-- 1 -->
<g id="node3" class="node"><title>1</title>
<ellipse fill="black" stroke="black" cx="251.547" cy="-349.8" rx="1.8" ry="1.8"/>
</g>
<!-- r&#45;&gt;1 -->
<g id="edge2" class="edge"><title>r&#45;&gt;1</title>
<path fill="none" stroke="black" d="M205.363,-402.487C209.903,-397.406 232.276,-372.368 244.135,-359.095"/>
<polygon fill="black" stroke="black" points="246.798,-361.368 250.851,-351.579 241.578,-356.704 246.798,-361.368"/>
<text text-anchor="middle" x="238.047" y="-373.4" font-family="Times New Roman,serif" font-size="14.00">1</text>
</g>
<!-- 00 -->
<g id="node4" class="node"><title>00</title>
<ellipse fill="none" stroke="black" cx="62.5473" cy="-279" rx="27" ry="18"/>
<text text-anchor="middle" x="62.5473" y="-275.3" font-family="Times New Roman,serif" font-size="14.00">0:00</text>
</g>
<!-- 0&#45;&gt;00 -->
<g id="edge3" class="edge"><title>0&#45;&gt;00</title>
<path fill="none" stroke="black" d="M109.019,-348.027C106.055,-343.688 91.1809,-321.915 79.0467,-304.152"/>
<polygon fill="black" stroke="black" points="81.9052,-302.132 73.3743,-295.849 76.1251,-306.08 81.9052,-302.132"/>
<text text-anchor="middle" x="100.047" y="-318.8" font-family="Times New Roman,serif" font-size="14.00">0</text>
</g>
<!-- 01 -->
<g id="node5" class="node"><title>01</title>
<ellipse fill="black" stroke="black" cx="109.547" cy="-279" rx="1.8" ry="1.8"/>
</g>
<!-- 0&#45;&gt;01 -->
<g id="edge4" class="edge"><title>0&#45;&gt;01</title>
<path fill="none" stroke="black" d="M109.547,-347.827C109.547,-341.775 109.547,-308.949 109.547,-291.278"/>
<polygon fill="black" stroke="black" points="113.047,-291.036 109.547,-281.036 106.047,-291.036 113.047,-291.036"/>
<text text-anchor="middle" x="113.047" y="-318.8" font-family="Times New Roman,serif" font-size="14.00">1</text>
</g>
<!-- 10 -->
<g id="node8" class="node"><title>10</title>
<ellipse fill="black" stroke="black" cx="251.547" cy="-279" rx="1.8" ry="1.8"/>
</g>
<!-- 1&#45;&gt;10 -->
<g id="edge7" class="edge"><title>1&#45;&gt;10</title>
<path fill="none" stroke="black" d="M251.547,-347.827C251.547,-341.775 251.547,-308.949 251.547,-291.278"/>
<polygon fill="black" stroke="black" points="255.047,-291.036 251.547,-281.036 248.047,-291.036 255.047,-291.036"/>
<text text-anchor="middle" x="255.047" y="-318.8" font-family="Times New Roman,serif" font-size="14.00">0</text>
</g>
<!-- 11 -->
<g id="node9" class="node"><title>11</title>
<ellipse fill="black" stroke="black" cx="346.547" cy="-279" rx="1.8" ry="1.8"/>
</g>
<!-- 1&#45;&gt;11 -->
<g id="edge8" class="edge"><title>1&#45;&gt;11</title>
<path fill="none" stroke="black" d="M252.614,-348.027C260.908,-342.021 315.34,-302.601 337.343,-286.666"/>
<polygon fill="black" stroke="black" points="339.561,-289.381 345.607,-280.681 335.455,-283.712 339.561,-289.381"/>
<text text-anchor="middle" x="299.047" y="-318.8" font-family="Times New Roman,serif" font-size="14.00">1</text>
</g>
<!-- 010 -->
<g id="node6" class="node"><title>010</title>
<ellipse fill="none" stroke="black" cx="30.5473" cy="-192" rx="30.5947" ry="18"/>
<text text-anchor="middle" x="30.5473" y="-188.3" font-family="Times New Roman,serif" font-size="14.00">1:010</text>
</g>
<!-- 01&#45;&gt;010 -->
<g id="edge5" class="edge"><title>01&#45;&gt;010</title>
<path fill="none" stroke="black" d="M109.017,-277.031C107.533,-274.355 103.144,-266.686 98.5473,-261 85.1229,-244.394 68.1392,-227.408 54.5035,-214.566"/>
<polygon fill="black" stroke="black" points="56.6235,-211.759 46.9141,-207.519 51.8601,-216.888 56.6235,-211.759"/>
<text text-anchor="middle" x="85.0473" y="-231.8" font-family="Times New Roman,serif" font-size="14.00">0</text>
</g>
<!-- 011 -->
<g id="node7" class="node"><title>011</title>
<ellipse fill="none" stroke="black" cx="109.547" cy="-192" rx="30.5947" ry="18"/>
<text text-anchor="middle" x="109.547" y="-188.3" font-family="Times New Roman,serif" font-size="14.00">2:011</text>
</g>
<!-- 01&#45;&gt;011 -->
<g id="edge6" class="edge"><title>01&#45;&gt;011</title>
<path fill="none" stroke="black" d="M109.547,-277.045C109.547,-271.472 109.547,-242.609 109.547,-220.245"/>
<polygon fill="black" stroke="black" points="113.047,-220.227 109.547,-210.227 106.047,-220.227 113.047,-220.227"/>
<text text-anchor="middle" x="113.047" y="-231.8" font-family="Times New Roman,serif" font-size="14.00">1</text>
</g>
<!-- 100 -->
<g id="node10" class="node"><title>100</title>
<ellipse fill="none" stroke="black" cx="188.547" cy="-192" rx="30.5947" ry="18"/>
<text text-anchor="middle" x="188.547" y="-188.3" font-family="Times New Roman,serif" font-size="14.00">3:100</text>
</g>
<!-- 10&#45;&gt;100 -->
<g id="edge9" class="edge"><title>10&#45;&gt;100</title>
<path fill="none" stroke="black" d="M250.84,-277.045C246.5,-271.191 223.118,-239.643 206.276,-216.919"/>
<polygon fill="black" stroke="black" points="208.961,-214.664 200.194,-208.714 203.337,-218.832 208.961,-214.664"/>
<text text-anchor="middle" x="227.047" y="-231.8" font-family="Times New Roman,serif" font-size="14.00">0</text>
</g>
<!-- 101 -->
<g id="node11" class="node"><title>101</title>
<ellipse fill="none" stroke="black" cx="267.547" cy="-192" rx="30.5947" ry="18"/>
<text text-anchor="middle" x="267.547" y="-188.3" font-family="Times New Roman,serif" font-size="14.00">4:101</text>
</g>
<!-- 10&#45;&gt;101 -->
<g id="edge10" class="edge"><title>10&#45;&gt;101</title>
<path fill="none" stroke="black" d="M251.727,-277.045C252.776,-271.472 258.209,-242.609 262.419,-220.245"/>
<polygon fill="black" stroke="black" points="265.894,-220.702 264.305,-210.227 259.015,-219.407 265.894,-220.702"/>
<text text-anchor="middle" x="263.047" y="-231.8" font-family="Times New Roman,serif" font-size="14.00">1</text>
</g>
<!-- 110 -->
<g id="node12" class="node"><title>110</title>
<ellipse fill="none" stroke="black" cx="346.547" cy="-192" rx="30.5947" ry="18"/>
<text text-anchor="middle" x="346.547" y="-188.3" font-family="Times New Roman,serif" font-size="14.00">5:110</text>
</g>
<!-- 11&#45;&gt;110 -->
<g id="edge11" class="edge"><title>11&#45;&gt;110</title>
<path fill="none" stroke="black" d="M346.547,-277.045C346.547,-271.472 346.547,-242.609 346.547,-220.245"/>
<polygon fill="black" stroke="black" points="350.047,-220.227 346.547,-210.227 343.047,-220.227 350.047,-220.227"/>
<text text-anchor="middle" x="350.047" y="-231.8" font-family="Times New Roman,serif" font-size="14.00">0</text>
</g>
<!-- 111 -->
<g id="node13" class="node"><title>111</title>
<ellipse fill="black" stroke="black" cx="396.547" cy="-192" rx="1.8" ry="1.8"/>
</g>
<!-- 11&#45;&gt;111 -->
<g id="edge12" class="edge"><title>11&#45;&gt;111</title>
<path fill="none" stroke="black" d="M347.109,-277.045C351.374,-269.795 378.815,-223.145 390.876,-202.642"/>
<polygon fill="black" stroke="black" points="393.999,-204.235 396.052,-193.841 387.965,-200.686 393.999,-204.235"/>
<text text-anchor="middle" x="377.047" y="-231.8" font-family="Times New Roman,serif" font-size="14.00">1</text>
</g>
<!-- 1110 -->
<g id="node14" class="node"><title>1110</title>
<ellipse fill="none" stroke="black" cx="375.547" cy="-105" rx="34.394" ry="18"/>
<text text-anchor="middle" x="375.547" y="-101.3" font-family="Times New Roman,serif" font-size="14.00">6:1110</text>
</g>
<!-- 111&#45;&gt;1110 -->
<g id="edge13" class="edge"><title>111&#45;&gt;1110</title>
<path fill="none" stroke="black" d="M396.311,-190.045C394.928,-184.446 387.739,-155.348 382.203,-132.942"/>
<polygon fill="black" stroke="black" points="385.6,-132.095 379.803,-123.227 378.804,-133.774 385.6,-132.095"/>
<text text-anchor="middle" x="390.047" y="-144.8" font-family="Times New Roman,serif" font-size="14.00">0</text>
</g>
<!-- 1111 -->
<g id="node15" class="node"><title>1111</title>
<ellipse fill="black" stroke="black" cx="429.547" cy="-105" rx="1.8" ry="1.8"/>
</g>
<!-- 111&#45;&gt;1111 -->
<g id="edge14" class="edge"><title>111&#45;&gt;1111</title>
<path fill="none" stroke="black" d="M396.918,-190.045C399.706,-182.864 417.504,-137.021 425.576,-116.229"/>
<polygon fill="black" stroke="black" points="428.864,-117.43 429.221,-106.841 422.339,-114.897 428.864,-117.43"/>
<text text-anchor="middle" x="418.047" y="-144.8" font-family="Times New Roman,serif" font-size="14.00">1</text>
</g>
<!-- 11110 -->
<g id="node16" class="node"><title>11110</title>
<ellipse fill="none" stroke="black" cx="399.547" cy="-18" rx="38.9931" ry="18"/>
<text text-anchor="middle" x="399.547" y="-14.3" font-family="Times New Roman,serif" font-size="14.00">7:11110</text>
</g>
<!-- 1111&#45;&gt;11110 -->
<g id="edge15" class="edge"><title>1111&#45;&gt;11110</title>
<path fill="none" stroke="black" d="M429.21,-103.045C427.223,-97.4147 416.848,-68.018 408.922,-45.5626"/>
<polygon fill="black" stroke="black" points="412.121,-44.1091 405.492,-35.8441 405.52,-46.4389 412.121,-44.1091"/>
<text text-anchor="middle" x="419.047" y="-57.8" font-family="Times New Roman,serif" font-size="14.00">0</text>
</g>
<!-- 11111 -->
<g id="node17" class="node"><title>11111</title>
<ellipse fill="black" stroke="black" cx="458.547" cy="-18" rx="1.8" ry="1.8"/>
</g>
<!-- 1111&#45;&gt;11111 -->
<g id="edge16" class="edge"><title>1111&#45;&gt;11111</title>
<path fill="none" stroke="black" d="M429.873,-103.045C432.312,-95.898 447.815,-50.4571 454.955,-29.5279"/>
<polygon fill="black" stroke="black" points="458.344,-30.4358 458.26,-19.8413 451.719,-28.1754 458.344,-30.4358"/>
<text text-anchor="middle" x="449.047" y="-57.8" font-family="Times New Roman,serif" font-size="14.00">1</text>
</g>
</g>
</svg>
